<svg xmlns="http://www.w3.org/2000/svg" xmlns:xlink="http://www.w3.org/1999/xlink" viewBox="0,0,256,256" width="170px" height="170px" fill-rule="nonzero"><g transform="translate(17.92,17.92) scale(0.86,0.86)"><g fill="#27272a" fill-rule="nonzero" stroke="none" stroke-width="1" stroke-linecap="butt" stroke-linejoin="miter" stroke-miterlimit="10" stroke-dasharray="" stroke-dashoffset="0" font-family="none" font-weight="none" font-size="none" text-anchor="none" style="mix-blend-mode: normal"><path d="M53.5814,276.83721c-41.10026,0 -74.4186,-33.31834 -74.4186,-74.4186v-148.83721c0,-41.10026 33.31834,-74.4186 74.4186,-74.4186h148.83721c41.10026,0 74.4186,33.31834 74.4186,74.4186v148.83721c0,41.10026 -33.31834,74.4186 -74.4186,74.4186z" id="shape"></path></g><g fill="#ffffff" fill-rule="nonzero" stroke="none" stroke-width="1" stroke-linecap="butt" stroke-linejoin="miter" stroke-miterlimit="10" stroke-dasharray="" stroke-dashoffset="0" font-family="none" font-weight="none" font-size="none" text-anchor="none" style="mix-blend-mode: normal"><g transform="scale(5.12,5.12)"><path d="M47.845,22.185l-20.03,-20.03c-1.543,-1.543 -4.046,-1.553 -5.729,0.002l-19.931,20.028c-1.542,1.542 -1.554,4.045 0,5.727l19.934,19.934c0.772,0.772 1.785,1.16 2.816,1.16c1.026,0 2.07,-0.385 2.91,-1.16l19.933,-19.934c1.605,-1.605 1.648,-4.175 0.097,-5.727zM18,27c-1.105,0 -2,-0.895 -2,-2c0,-1.105 0.895,-2 2,-2c1.105,0 2,0.895 2,2c0,1.105 -0.895,2 -2,2zM25,34c-1.105,0 -2,-0.895 -2,-2c0,-1.105 0.895,-2 2,-2c1.105,0 2,0.895 2,2c0,1.105 -0.895,2 -2,2zM25,20c-1.105,0 -2,-0.895 -2,-2c0,-1.105 0.895,-2 2,-2c1.105,0 2,0.895 2,2c0,1.105 -0.895,2 -2,2zM32,27c-1.105,0 -2,-0.895 -2,-2c0,-1.105 0.895,-2 2,-2c1.105,0 2,0.895 2,2c0,1.105 -0.895,2 -2,2z"></path></g></g></g></svg>